<svg xmlns="http://www.w3.org/2000/svg" xmlns:xlink="http://www.w3.org/1999/xlink" id="body_1" preserveAspectRatio="xMinYMin meet" viewBox="0 0 793 1121"><defs><clipPath id="1"><path id="" clip-rule="evenodd" transform="matrix(1 0 0 1 0 0)" d="M0 841L0 -0.9000244L0 -0.9000244L595.3 -0.9000244L595.3 -0.9000244L595.3 841L595.3 841L0 841z" /></clipPath><clipPath id="2"><path id="" clip-rule="evenodd" transform="matrix(1 0 0 1 0 0)" d="M0 -0.9000244L595.3 -0.9000244L595.3 -0.9000244L595.3 841L595.3 841L0 841z" /></clipPath><clipPath id="3"><path id="" clip-rule="evenodd" transform="matrix(1 0 0 1 0 0)" d="M0 -0.9000244L595.3 -0.9000244L595.3 -0.9000244L595.3 841L595.3 841L0 841z" /></clipPath><clipPath id="4"><path id="" clip-rule="evenodd" transform="matrix(1 0 0 1 0 0)" d="M71.3 119.7L524.4 119.7L524.4 119.7L524.4 354.2L524.4 354.2L71.3 354.2z" /></clipPath><clipPath id="5"><path id="" clip-rule="evenodd" transform="matrix(1 0 0 1 0 0)" d="M81.9 121.3L159.7 121.3L159.7 121.3L159.7 150.15L159.7 150.15L81.9 150.15z" /></clipPath><clipPath id="6"><path id="" clip-rule="evenodd" transform="matrix(1 0 0 1 0 0)" d="M71.3 119.7L524.4 119.7L524.4 119.7L524.4 354.2L524.4 354.2L71.3 354.2z" /></clipPath><clipPath id="7"><path id="" clip-rule="evenodd" transform="matrix(1 0 0 1 0 0)" d="M288.2 121.3L371 121.3L371 121.3L371 150.15L371 150.15L288.2 150.15z" /></clipPath><clipPath id="8"><path id="" clip-rule="evenodd" transform="matrix(1 0 0 1 0 0)" d="M71.3 119.7L524.4 119.7L524.4 119.7L524.4 354.2L524.4 354.2L71.3 354.2z" /></clipPath><clipPath id="9"><path id="" clip-rule="evenodd" transform="matrix(1 0 0 1 0 0)" d="M81.9 150.15L159.7 150.15L159.7 150.15L159.7 179L159.7 179L81.9 179z" /></clipPath><clipPath id="10"><path id="" clip-rule="evenodd" transform="matrix(1 0 0 1 0 0)" d="M71.3 119.7L524.4 119.7L524.4 119.7L524.4 354.2L524.4 354.2L71.3 354.2z" /></clipPath><clipPath id="11"><path id="" clip-rule="evenodd" transform="matrix(1 0 0 1 0 0)" d="M288.2 150.15L371 150.15L371 150.15L371 179L371 179L288.2 179z" /></clipPath><clipPath id="12"><path id="" clip-rule="evenodd" transform="matrix(1 0 0 1 0 0)" d="M71.3 119.7L524.4 119.7L524.4 119.7L524.4 354.2L524.4 354.2L71.3 354.2z" /></clipPath><clipPath id="13"><path id="" clip-rule="evenodd" transform="matrix(1 0 0 1 0 0)" d="M81.9 179L159.7 179L159.7 179L159.7 207.85L159.7 207.85L81.9 207.85z" /></clipPath><clipPath id="14"><path id="" clip-rule="evenodd" transform="matrix(1 0 0 1 0 0)" d="M71.3 119.7L524.4 119.7L524.4 119.7L524.4 354.2L524.4 354.2L71.3 354.2z" /></clipPath><clipPath id="15"><path id="" clip-rule="evenodd" transform="matrix(1 0 0 1 0 0)" d="M159.65 179L513.85 179L513.85 179L513.85 207.85L513.85 207.85L159.65 207.85z" /></clipPath><clipPath id="16"><path id="" clip-rule="evenodd" transform="matrix(1 0 0 1 0 0)" d="M71.3 119.7L524.4 119.7L524.4 119.7L524.4 354.2L524.4 354.2L71.3 354.2z" /></clipPath><clipPath id="17"><path id="" clip-rule="evenodd" transform="matrix(1 0 0 1 0 0)" d="M81.9 207.85L159.7 207.85L159.7 207.85L159.7 236.7L159.7 236.7L81.9 236.7z" /></clipPath><clipPath id="18"><path id="" clip-rule="evenodd" transform="matrix(1 0 0 1 0 0)" d="M71.3 119.7L524.4 119.7L524.4 119.7L524.4 354.2L524.4 354.2L71.3 354.2z" /></clipPath><clipPath id="19"><path id="" clip-rule="evenodd" transform="matrix(1 0 0 1 0 0)" d="M159.65 207.85L513.85 207.85L513.85 207.85L513.85 236.7L513.85 236.7L159.65 236.7z" /></clipPath><clipPath id="20"><path id="" clip-rule="evenodd" transform="matrix(1 0 0 1 0 0)" d="M71.3 119.7L524.4 119.7L524.4 119.7L524.4 354.2L524.4 354.2L71.3 354.2z" /></clipPath><clipPath id="21"><path id="" clip-rule="evenodd" transform="matrix(1 0 0 1 0 0)" d="M81.9 236.7L159.7 236.7L159.7 236.7L159.7 265.55L159.7 265.55L81.9 265.55z" /></clipPath><clipPath id="22"><path id="" clip-rule="evenodd" transform="matrix(1 0 0 1 0 0)" d="M71.3 119.7L524.4 119.7L524.4 119.7L524.4 354.2L524.4 354.2L71.3 354.2z" /></clipPath><clipPath id="23"><path id="" clip-rule="evenodd" transform="matrix(1 0 0 1 0 0)" d="M81.9 265.55L159.7 265.55L159.7 265.55L159.7 323.25L159.7 323.25L81.9 323.25z" /></clipPath><clipPath id="24"><path id="" clip-rule="evenodd" transform="matrix(1 0 0 1 0 0)" d="M71.3 119.7L524.4 119.7L524.4 119.7L524.4 354.2L524.4 354.2L71.3 354.2z" /></clipPath><clipPath id="25"><path id="" clip-rule="evenodd" transform="matrix(1 0 0 1 0 0)" d="M159.65 265.55L222.15 265.55L222.15 265.55L222.15 294.4L222.15 294.4L159.65 294.4z" /></clipPath><clipPath id="26"><path id="" clip-rule="evenodd" transform="matrix(1 0 0 1 0 0)" d="M71.3 119.7L524.4 119.7L524.4 119.7L524.4 354.2L524.4 354.2L71.3 354.2z" /></clipPath><clipPath id="27"><path id="" clip-rule="evenodd" transform="matrix(1 0 0 1 0 0)" d="M222.1 265.55L345.5 265.55L345.5 265.55L345.5 294.4L345.5 294.4L222.1 294.4z" /></clipPath><clipPath id="28"><path id="" clip-rule="evenodd" transform="matrix(1 0 0 1 0 0)" d="M71.3 119.7L524.4 119.7L524.4 119.7L524.4 354.2L524.4 354.2L71.3 354.2z" /></clipPath><clipPath id="29"><path id="" clip-rule="evenodd" transform="matrix(1 0 0 1 0 0)" d="M345.45 265.55L426.45 265.55L426.45 265.55L426.45 294.4L426.45 294.4L345.45 294.4z" /></clipPath><clipPath id="30"><path id="" clip-rule="evenodd" transform="matrix(1 0 0 1 0 0)" d="M71.3 119.7L524.4 119.7L524.4 119.7L524.4 354.2L524.4 354.2L71.3 354.2z" /></clipPath><clipPath id="31"><path id="" clip-rule="evenodd" transform="matrix(1 0 0 1 0 0)" d="M159.65 294.4L222.15 294.4L222.15 294.4L222.15 323.25L222.15 323.25L159.65 323.25z" /></clipPath><clipPath id="32"><path id="" clip-rule="evenodd" transform="matrix(1 0 0 1 0 0)" d="M71.3 119.7L524.4 119.7L524.4 119.7L524.4 354.2L524.4 354.2L71.3 354.2z" /></clipPath><clipPath id="33"><path id="" clip-rule="evenodd" transform="matrix(1 0 0 1 0 0)" d="M222.1 294.4L345.5 294.4L345.5 294.4L345.5 323.25L345.5 323.25L222.1 323.25z" /></clipPath><clipPath id="34"><path id="" clip-rule="evenodd" transform="matrix(1 0 0 1 0 0)" d="M71.3 119.7L524.4 119.7L524.4 119.7L524.4 354.2L524.4 354.2L71.3 354.2z" /></clipPath><clipPath id="35"><path id="" clip-rule="evenodd" transform="matrix(1 0 0 1 0 0)" d="M345.45 294.4L426.45 294.4L426.45 294.4L426.45 323.25L426.45 323.25L345.45 323.25z" /></clipPath><clipPath id="36"><path id="" clip-rule="evenodd" transform="matrix(1 0 0 1 0 0)" d="M71.3 119.7L524.4 119.7L524.4 119.7L524.4 354.2L524.4 354.2L71.3 354.2z" /></clipPath><clipPath id="37"><path id="" clip-rule="evenodd" transform="matrix(1 0 0 1 0 0)" d="M81.9 323.25L159.7 323.25L159.7 323.25L159.7 352.65L159.7 352.65L81.9 352.65z" /></clipPath><clipPath id="38"><path id="" clip-rule="evenodd" transform="matrix(1 0 0 1 0 0)" d="M71.3 119.7L524.4 119.7L524.4 119.7L524.4 354.2L524.4 354.2L71.3 354.2z" /></clipPath><clipPath id="39"><path id="" clip-rule="evenodd" transform="matrix(1 0 0 1 0 0)" d="M288.2 323.25L371 323.25L371 323.25L371 352.65L371 352.65L288.2 352.65z" /></clipPath><clipPath id="40"><path id="" clip-rule="evenodd" transform="matrix(1 0 0 1 0 0)" d="M71.3 119.7L524.4 119.7L524.4 119.7L524.4 354.2L524.4 354.2L71.3 354.2z" /></clipPath></defs><g transform="matrix(1.333333 0 0 1.333333 0 0)"><g clip-path="url(#1)"><g clip-path="url(#2)"><path id="554" transform="matrix(1 0 0 -1 0 841)" d="M483.35 163.45L516 163.45" stroke="#000000" stroke-width="0.72" fill="none" /></g><g clip-path="url(#3)"><g clip-path="url(#4)"><g clip-path="url(#5)"></g></g></g><g clip-path="url(#6)"><g clip-path="url(#7)"></g></g><g clip-path="url(#8)"><g clip-path="url(#9)"></g></g><g clip-path="url(#10)"><g clip-path="url(#11)"></g></g><g clip-path="url(#12)"><g clip-path="url(#13)"></g></g><g clip-path="url(#14)"><g clip-path="url(#15)"></g></g><g clip-path="url(#16)"><g clip-path="url(#17)"></g></g><g clip-path="url(#18)"><g clip-path="url(#19)"></g></g><g clip-path="url(#20)"><g clip-path="url(#21)"></g></g><g clip-path="url(#22)"><g clip-path="url(#23)"></g></g><g clip-path="url(#24)"><g clip-path="url(#25)"></g></g><g clip-path="url(#26)"><g clip-path="url(#27)"></g></g><g clip-path="url(#28)"><g clip-path="url(#29)"></g></g><g clip-path="url(#30)"><g clip-path="url(#31)"></g></g><g clip-path="url(#32)"><g clip-path="url(#33)"></g></g><g clip-path="url(#34)"><g clip-path="url(#35)"></g></g><g clip-path="url(#36)"><g clip-path="url(#37)"></g></g><g clip-path="url(#38)"><g clip-path="url(#39)"></g></g><g clip-path="url(#40)"><path id="689" transform="matrix(1 0 0 -1 0 841)" d="M81.66 719.46L514.04 719.46" stroke="#000000" stroke-width="0.48" fill="none" /><path id="690" transform="matrix(1 0 0 -1 0 841)" d="M81.66 690.61L514.04 690.61" stroke="#000000" stroke-width="0.48" fill="none" /><path id="691" transform="matrix(1 0 0 -1 0 841)" d="M81.66 661.76L514.04 661.76" stroke="#000000" stroke-width="0.48" fill="none" /><path id="692" transform="matrix(1 0 0 -1 0 841)" d="M81.66 632.91L514.04 632.91" stroke="#000000" stroke-width="0.48" fill="none" /><path id="693" transform="matrix(1 0 0 -1 0 841)" d="M81.66 604.0601L514.04 604.0601" stroke="#000000" stroke-width="0.48" fill="none" /><path id="694" transform="matrix(1 0 0 -1 0 841)" d="M81.66 575.21L514.04 575.21" stroke="#000000" stroke-width="0.48" fill="none" /><path id="695" transform="matrix(1 0 0 -1 0 841)" d="M159.41 546.36L514.04 546.36" stroke="#000000" stroke-width="0.48" fill="none" /><path id="696" transform="matrix(1 0 0 -1 0 841)" d="M81.66 517.51L514.04 517.51" stroke="#000000" stroke-width="0.48" fill="none" /><path id="697" transform="matrix(1 0 0 -1 0 841)" d="M81.66 488.66L514.04 488.66" stroke="#000000" stroke-width="0.48" fill="none" /><path id="698" transform="matrix(1 0 0 -1 0 841)" d="M81.9 719.7L81.9 488.42" stroke="#000000" stroke-width="0.48" fill="none" /><path id="699" transform="matrix(1 0 0 -1 0 841)" d="M159.65 719.7L159.65 488.9" stroke="#000000" stroke-width="0.48" fill="none" /><path id="700" transform="matrix(1 0 0 -1 0 841)" d="M222.1 575.45L222.1 517.75" stroke="#000000" stroke-width="0.48" fill="none" /><path id="701" transform="matrix(1 0 0 -1 0 841)" d="M288.2 719.7L288.2 662" stroke="#000000" stroke-width="0.48" fill="none" /><path id="702" transform="matrix(1 0 0 -1 0 841)" d="M288.2 517.75L288.2 488.9" stroke="#000000" stroke-width="0.48" fill="none" /><path id="703" transform="matrix(1 0 0 -1 0 841)" d="M345.45 575.45L345.45 517.75" stroke="#000000" stroke-width="0.48" fill="none" /><path id="704" transform="matrix(1 0 0 -1 0 841)" d="M370.95 719.7L370.95 662" stroke="#000000" stroke-width="0.48" fill="none" /><path id="705" transform="matrix(1 0 0 -1 0 841)" d="M370.95 517.75L370.95 488.9" stroke="#000000" stroke-width="0.48" fill="none" /><path id="706" transform="matrix(1 0 0 -1 0 841)" d="M426.4 575.45L426.4 517.75" stroke="#000000" stroke-width="0.48" fill="none" /><path id="707" transform="matrix(1 0 0 -1 0 841)" d="M513.8 719.22L513.8 488.42" stroke="#000000" stroke-width="0.48" fill="none" /></g></g></g></svg>